# xmcd CD database file
#
# Track frame offsets:
#	150
#	13675
#	26802
#	40627
#	51977
#	64620
#	73930
#	87862
#	100957
#	115320
#	127825
#	137572
#	152545
#	165792
#	180002
#	194362
#	205977
#	222537
#	233345
#	248637
#
# Disc length: 3486 seconds
#
# Revision: 2
# Processed by: cddbd v1.5.2PL0 Copyright (c) Steve Scherf et al.
# Submitted via: CDex 2.04
#
DISCID=030d9c14
DTITLE=Chet Atkins - The Masters
DYEAR=1998
DGENRE=Instrumental
TTITLE0=Unchained Melody
TTITLE1=The Sound Of Silence
TTITLE2=Light My Fire
TTITLE3=Walk Right Back
TTITLE4=Stranger On The Shore
TTITLE5=It's Now Or Never
TTITLE6=Song Sung Blue
TTITLE7=Spanish Harlem
TTITLE8=Yesterday
TTITLE9=Michelle
TTITLE10=I'll Follow The Sun
TTITLE11=Hey Jude
TTITLE12=By The Time I Get To Phoenix
TTITLE13=This Guy's In Love With You
TTITLE14=Bridge Over Troubled Water
TTITLE15=Both Sides Now
TTITLE16=My Way
TTITLE17=Cast Your Fate To The Wind
TTITLE18=Vincent
TTITLE19=You'll Never Walk Alone
EXTD=YEAR: 1998
EXTT0=
EXTT1=
EXTT2=
EXTT3=
EXTT4=
EXTT5=
EXTT6=
EXTT7=
EXTT8=
EXTT9=
EXTT10=
EXTT11=
EXTT12=
EXTT13=
EXTT14=
EXTT15=
EXTT16=
EXTT17=
EXTT18=
EXTT19=
PLAYORDER=
